<svg width="442" height="67" viewBox="0 0 442 67" fill="none" xmlns="http://www.w3.org/2000/svg">
<path d="M441.591 42.977C441.591 46.1286 440.6 49.0224 438.618 51.6583C436.694 54.237 434.071 56.2999 430.748 57.847C427.425 59.3942 423.753 60.1678 419.73 60.1678H370.85V51.5724H419.73C422.121 51.5724 424.307 51.1999 426.289 50.455C428.271 49.6527 429.845 48.5926 431.011 47.2747C432.235 45.9567 432.847 44.5242 432.847 42.977V38.6793H392.711C388.688 38.6793 385.016 37.7051 381.693 35.7569C378.428 33.8086 375.805 31.2299 373.823 28.021C371.841 24.7547 370.85 21.1447 370.85 17.1908V0H379.594V17.1908C379.594 19.5402 380.177 21.7177 381.343 23.7233C382.509 25.6716 384.083 27.2188 386.065 28.3648C388.105 29.5109 390.32 30.0839 392.711 30.0839H432.847V0H441.591V42.977Z" fill="#253D81"/>
<path d="M361.88 59.9474H310.311V0H318.489V51.3835H361.88V59.9474Z" fill="#253D81"/>
<path d="M304.301 30.0839C304.301 34.267 303.619 38.1922 302.254 41.8596C300.888 45.4697 298.93 48.65 296.377 51.4005C293.885 54.151 290.857 56.2999 287.296 57.847C283.794 59.3942 279.906 60.1678 275.633 60.1678H243.046V55.9803V51.5724H275.633C279.728 51.5724 283.26 50.5982 286.228 48.65C289.195 46.7017 291.451 44.123 292.994 40.9141C294.597 37.6478 295.398 34.0378 295.398 30.0839C295.398 26.13 294.597 22.5199 292.994 19.2537C291.451 15.9874 289.195 13.4088 286.228 11.5178C283.26 9.56954 279.728 8.5954 275.633 8.5954H239.753V53.2915L235.724 58.4487L230.849 53.2915V0H275.633C279.906 0 283.794 0.773586 287.296 2.32076C290.857 3.86793 293.885 6.04543 296.377 8.85326C298.93 11.6038 300.888 14.8127 302.254 18.4801C303.619 22.0902 304.301 25.9581 304.301 30.0839Z" fill="#253D81"/>
<path d="M221.756 60.1678H213.011V48.1342H159.846V40.3984H213.011V8.5954H181.619C177.655 8.5954 174.012 9.56954 170.689 11.5178C167.366 13.4088 164.714 15.9874 162.731 19.2537C160.808 22.5199 159.846 26.13 159.846 30.0839V60.1678H151.102V30.0839C151.102 25.9581 151.889 22.0902 153.463 18.4801C155.036 14.8127 157.223 11.6038 160.021 8.85326C162.819 6.04543 166.054 3.86793 169.727 2.32076C173.458 0.773586 177.422 0 181.619 0H221.756V60.1678Z" fill="#253D81"/>
<path d="M221.756 60.1678H213.011V48.1342H159.846V40.3984H213.011V8.5954H181.619C177.655 8.5954 174.012 9.56954 170.689 11.5178C167.366 13.4088 164.714 15.9874 162.731 19.2537C160.808 22.5199 159.846 26.13 159.846 30.0839V60.1678H151.102V30.0839C151.102 25.9581 151.889 22.0902 153.463 18.4801C155.036 14.8127 157.223 11.6038 160.021 8.85326C162.819 6.04543 166.054 3.86793 169.727 2.32076C173.458 0.773586 177.422 0 181.619 0H221.756V60.1678Z" fill="#253D81"/>
<path d="M145.931 60.1678H106.494C102.238 60.1678 98.3909 59.3942 94.9514 57.847C91.512 56.2999 88.539 54.151 86.0323 51.4005C83.5839 48.65 81.6893 45.4697 80.3485 41.8596C79.0077 38.1922 78.3373 34.267 78.3373 30.0839C78.3373 25.9581 79.0077 22.0902 80.3485 18.4801C81.6893 14.8127 83.5839 11.6038 86.0323 8.85326C88.539 6.04543 91.512 3.86793 94.9514 2.32076C98.3909 0.773586 102.238 0 106.494 0H145.931V8.5954H106.494C102.472 8.5954 99.003 9.56954 96.0882 11.5178C93.2317 13.4088 91.0165 15.9874 89.4425 19.2537C87.8686 22.5199 87.0816 26.13 87.0816 30.0839C87.0816 34.0378 87.8686 37.6478 89.4425 40.9141C91.0165 44.123 93.2317 46.7017 96.0882 48.6499C99.003 50.5982 102.472 51.5724 106.494 51.5724H145.931V60.1678Z" fill="#253D81"/>
<path d="M70.6539 60.1678H61.9096V42.977H13.029V34.3816H61.9096V8.5954H30.5176C26.5535 8.5954 22.9101 9.56954 19.5872 11.5178C16.2644 13.4088 13.612 15.9874 11.6299 19.2537C9.70617 22.5199 8.7443 26.13 8.7443 30.0839V60.1678H0V30.0839C0 25.9581 0.786987 22.0902 2.36096 18.4801C3.93493 14.8127 6.12101 11.6038 8.91918 8.85326C11.7174 6.04543 14.9528 3.86793 18.6254 2.32076C22.3563 0.773586 26.3203 0 30.5176 0H70.6539V60.1678Z" fill="#253D81"/>
<path d="M199.101 59.9473H208.069V66.9999L203.585 65.2367L199.101 66.9999V59.9473Z" fill="#253D81"/>
<line x1="169.639" y1="24.0954" x2="192.374" y2="24.0954" stroke="#253D81" stroke-width="3.55802"/>
<line x1="169.639" y1="29.2526" x2="206.365" y2="29.2526" stroke="#253D81" stroke-width="3.55802"/>
<line x1="194.124" y1="24.0954" x2="206.366" y2="24.0954" stroke="#253D81" stroke-width="3.55802"/>
<path d="M159.146 52.432H213.361V60.1679H159.146V52.432Z" fill="#253D81"/>
</svg>
