<svg width="442" height="111" viewBox="0 0 442 111" fill="none" xmlns="http://www.w3.org/2000/svg">
<path d="M441.591 42.977C441.591 46.1286 440.6 49.0224 438.618 51.6583C436.694 54.237 434.071 56.2999 430.748 57.847C427.425 59.3942 423.753 60.1678 419.73 60.1678H370.85V51.5724H419.73C422.121 51.5724 424.307 51.1999 426.289 50.455C428.271 49.6527 429.845 48.5926 431.011 47.2747C432.235 45.9567 432.847 44.5242 432.847 42.977V38.6793H392.711C388.688 38.6793 385.016 37.7051 381.693 35.7569C378.428 33.8086 375.805 31.2299 373.823 28.021C371.841 24.7547 370.85 21.1447 370.85 17.1908V0H379.594V17.1908C379.594 19.5402 380.177 21.7177 381.343 23.7233C382.509 25.6716 384.083 27.2188 386.065 28.3648C388.105 29.5109 390.32 30.0839 392.711 30.0839H432.847V0H441.591V42.977Z" fill="#253D81"/>
<path d="M361.88 59.9474H310.311V0H318.489V51.3835H361.88V59.9474Z" fill="#253D81"/>
<path d="M304.301 30.0839C304.301 34.267 303.619 38.1922 302.254 41.8596C300.888 45.4697 298.93 48.65 296.377 51.4005C293.885 54.151 290.857 56.2999 287.296 57.847C283.794 59.3942 279.906 60.1678 275.633 60.1678H243.046V55.9803V51.5724H275.633C279.728 51.5724 283.26 50.5982 286.228 48.65C289.195 46.7017 291.451 44.123 292.994 40.9141C294.597 37.6478 295.398 34.0378 295.398 30.0839C295.398 26.13 294.597 22.5199 292.994 19.2537C291.451 15.9874 289.195 13.4088 286.228 11.5178C283.26 9.56954 279.728 8.5954 275.633 8.5954H239.753V53.2915L235.724 58.4487L230.849 53.2915V0H275.633C279.906 0 283.794 0.773586 287.296 2.32076C290.857 3.86793 293.885 6.04543 296.377 8.85326C298.93 11.6038 300.888 14.8127 302.254 18.4801C303.619 22.0902 304.301 25.9581 304.301 30.0839Z" fill="#253D81"/>
<path d="M221.756 60.1678H213.011V48.1342H159.846V40.3984H213.011V8.5954H181.619C177.655 8.5954 174.012 9.56954 170.689 11.5178C167.366 13.4088 164.714 15.9874 162.731 19.2537C160.808 22.5199 159.846 26.13 159.846 30.0839V60.1678H151.102V30.0839C151.102 25.9581 151.889 22.0902 153.463 18.4801C155.036 14.8127 157.223 11.6038 160.021 8.85326C162.819 6.04543 166.054 3.86793 169.727 2.32076C173.458 0.773586 177.422 0 181.619 0H221.756V60.1678Z" fill="#253D81"/>
<path d="M221.756 60.1678H213.011V48.1342H159.846V40.3984H213.011V8.5954H181.619C177.655 8.5954 174.012 9.56954 170.689 11.5178C167.366 13.4088 164.714 15.9874 162.731 19.2537C160.808 22.5199 159.846 26.13 159.846 30.0839V60.1678H151.102V30.0839C151.102 25.9581 151.889 22.0902 153.463 18.4801C155.036 14.8127 157.223 11.6038 160.021 8.85326C162.819 6.04543 166.054 3.86793 169.727 2.32076C173.458 0.773586 177.422 0 181.619 0H221.756V60.1678Z" fill="#253D81"/>
<path d="M145.931 60.1678H106.494C102.238 60.1678 98.3909 59.3942 94.9514 57.847C91.512 56.2999 88.539 54.151 86.0323 51.4005C83.5839 48.65 81.6893 45.4697 80.3485 41.8596C79.0077 38.1922 78.3373 34.267 78.3373 30.0839C78.3373 25.9581 79.0077 22.0902 80.3485 18.4801C81.6893 14.8127 83.5839 11.6038 86.0323 8.85326C88.539 6.04543 91.512 3.86793 94.9514 2.32076C98.3909 0.773586 102.238 0 106.494 0H145.931V8.5954H106.494C102.472 8.5954 99.003 9.56954 96.0882 11.5178C93.2317 13.4088 91.0165 15.9874 89.4425 19.2537C87.8686 22.5199 87.0816 26.13 87.0816 30.0839C87.0816 34.0378 87.8686 37.6478 89.4425 40.9141C91.0165 44.123 93.2317 46.7017 96.0882 48.6499C99.003 50.5982 102.472 51.5724 106.494 51.5724H145.931V60.1678Z" fill="#253D81"/>
<path d="M70.6539 60.1678H61.9096V42.977H13.029V34.3816H61.9096V8.5954H30.5176C26.5535 8.5954 22.9101 9.56954 19.5872 11.5178C16.2644 13.4088 13.612 15.9874 11.6299 19.2537C9.70617 22.5199 8.7443 26.13 8.7443 30.0839V60.1678H0V30.0839C0 25.9581 0.786987 22.0902 2.36096 18.4801C3.93493 14.8127 6.12101 11.6038 8.91918 8.85326C11.7174 6.04543 14.9528 3.86793 18.6254 2.32076C22.3563 0.773586 26.3203 0 30.5176 0H70.6539V60.1678Z" fill="#253D81"/>
<path d="M199.101 59.9473H208.069V66.9999L203.585 65.2367L199.101 66.9999V59.9473Z" fill="#253D81"/>
<line x1="169.639" y1="24.0954" x2="192.374" y2="24.0954" stroke="#253D81" stroke-width="3.55802"/>
<line x1="169.639" y1="29.2526" x2="206.365" y2="29.2526" stroke="#253D81" stroke-width="3.55802"/>
<line x1="194.124" y1="24.0954" x2="206.366" y2="24.0954" stroke="#253D81" stroke-width="3.55802"/>
<path d="M159.146 52.432H213.361V60.1679H159.146V52.432Z" fill="#253D81"/>
<path d="M55.16 96.56V95.6C55.16 95.32 55.3 95.18 55.58 95.18H56.93C57.21 95.18 57.35 95.32 57.35 95.6V96.38C57.35 98.18 58.24 99.08 60.02 99.08H62.66C64.44 99.08 65.33 98.16 65.33 96.32V95.3C65.33 93.86 64.14 92.92 61.76 92.48C60.76 92.3 59.76 92.09 58.76 91.85C57.76 91.61 56.91 91.15 56.21 90.47C55.51 89.77 55.16 88.82 55.16 87.62V86.15C55.16 84.77 55.55 83.69 56.33 82.91C57.13 82.11 58.22 81.71 59.6 81.71H62.93C64.29 81.71 65.37 82.11 66.17 82.91C66.97 83.69 67.37 84.77 67.37 86.15V86.9C67.37 87.2 67.24 87.35 66.98 87.35H65.6C65.34 87.35 65.21 87.2 65.21 86.9V86.36C65.21 84.54 64.32 83.63 62.54 83.63H59.99C58.21 83.63 57.32 84.58 57.32 86.48V87.68C57.32 88.7 57.99 89.4 59.33 89.78C59.93 89.94 60.59 90.09 61.31 90.23C62.03 90.35 62.75 90.52 63.47 90.74C64.21 90.94 64.88 91.2 65.48 91.52C66.08 91.82 66.56 92.29 66.92 92.93C67.3 93.55 67.49 94.31 67.49 95.21V96.56C67.49 97.94 67.09 99.03 66.29 99.83C65.49 100.61 64.41 101 63.05 101H59.6C58.24 101 57.16 100.61 56.36 99.83C55.56 99.03 55.16 97.94 55.16 96.56ZM80.7706 81.71H82.1206C82.4006 81.71 82.5406 81.84 82.5406 82.1V96.56C82.5406 97.96 82.1506 99.05 81.3706 99.83C80.5906 100.61 79.5106 101 78.1306 101H74.8006C73.4206 101 72.3306 100.61 71.5306 99.83C70.7506 99.05 70.3606 97.96 70.3606 96.56V82.13C70.3606 81.85 70.5006 81.71 70.7806 81.71H72.1306C72.4106 81.71 72.5506 81.85 72.5506 82.13V96.47C72.5506 98.21 73.3806 99.08 75.0406 99.08H77.8606C79.5406 99.08 80.3806 98.21 80.3806 96.47V82.13C80.3806 81.85 80.5106 81.71 80.7706 81.71ZM85.862 101H84.362C84.102 101 84.012 100.86 84.092 100.58L89.702 82.13C89.782 81.85 89.972 81.71 90.272 81.71H92.432C92.732 81.71 92.922 81.85 93.002 82.13L98.612 100.58C98.692 100.86 98.602 101 98.342 101H96.812C96.592 101 96.452 100.86 96.392 100.58L94.982 96.2H87.722L86.312 100.58C86.232 100.86 86.082 101 85.862 101ZM91.292 83.96L88.202 94.34H94.502L91.412 83.96H91.292ZM108.21 101H106.86C106.58 101 106.44 100.86 106.44 100.58V82.13C106.44 81.85 106.58 81.71 106.86 81.71H113.88C115.26 81.71 116.34 82.11 117.12 82.91C117.9 83.69 118.29 84.77 118.29 86.15V89.48C118.29 90.88 117.9 91.97 117.12 92.75C116.34 93.53 115.26 93.92 113.88 93.92H108.93C108.73 93.92 108.63 94.01 108.63 94.19V100.58C108.63 100.86 108.49 101 108.21 101ZM108.93 91.97H113.58C115.26 91.97 116.1 91.11 116.1 89.39V86.24C116.1 84.5 115.26 83.63 113.58 83.63H108.93C108.73 83.63 108.63 83.72 108.63 83.9V91.7C108.63 91.88 108.73 91.97 108.93 91.97ZM130.781 101H121.151C120.871 101 120.731 100.86 120.731 100.58V82.13C120.731 81.85 120.871 81.71 121.151 81.71H122.501C122.781 81.71 122.921 81.85 122.921 82.13V98.75C122.921 98.93 123.021 99.02 123.221 99.02H130.781C131.061 99.02 131.201 99.17 131.201 99.47V100.58C131.201 100.86 131.061 101 130.781 101ZM133.006 101H131.506C131.246 101 131.156 100.86 131.236 100.58L136.846 82.13C136.926 81.85 137.116 81.71 137.416 81.71H139.576C139.876 81.71 140.066 81.85 140.146 82.13L145.756 100.58C145.836 100.86 145.746 101 145.486 101H143.956C143.736 101 143.596 100.86 143.536 100.58L142.126 96.2H134.866L133.456 100.58C133.376 100.86 133.226 101 133.006 101ZM138.436 83.96L135.346 94.34H141.646L138.556 83.96H138.436ZM152.178 101H150.828C150.548 101 150.408 100.86 150.408 100.58V83.9C150.408 83.72 150.308 83.63 150.108 83.63H146.028C145.728 83.63 145.578 83.49 145.578 83.21V82.13C145.578 81.85 145.728 81.71 146.028 81.71H156.978C157.278 81.71 157.428 81.85 157.428 82.13V83.21C157.428 83.49 157.278 83.63 156.978 83.63H152.898C152.698 83.63 152.598 83.72 152.598 83.9V100.58C152.598 100.86 152.458 101 152.178 101ZM159.01 101H157.51C157.25 101 157.16 100.86 157.24 100.58L162.85 82.13C162.93 81.85 163.12 81.71 163.42 81.71H165.58C165.88 81.71 166.07 81.85 166.15 82.13L171.76 100.58C171.84 100.86 171.75 101 171.49 101H169.96C169.74 101 169.6 100.86 169.54 100.58L168.13 96.2H160.87L159.46 100.58C159.38 100.86 159.23 101 159.01 101ZM164.44 83.96L161.35 94.34H167.65L164.56 83.96H164.44ZM175.242 101H173.892C173.612 101 173.472 100.86 173.472 100.58V82.13C173.472 81.85 173.612 81.71 173.892 81.71H183.222C183.502 81.71 183.642 81.85 183.642 82.13V83.21C183.642 83.49 183.502 83.63 183.222 83.63H175.962C175.762 83.63 175.662 83.72 175.662 83.9V90.44C175.662 90.62 175.762 90.71 175.962 90.71H182.382C182.662 90.71 182.802 90.85 182.802 91.13V92.21C182.802 92.49 182.662 92.63 182.382 92.63H175.962C175.762 92.63 175.662 92.73 175.662 92.93V100.58C175.662 100.86 175.522 101 175.242 101ZM190.063 99.08H193.123C194.803 99.08 195.643 98.21 195.643 96.47V86.24C195.643 84.5 194.803 83.63 193.123 83.63H190.063C188.403 83.63 187.573 84.5 187.573 86.24V96.47C187.573 98.21 188.403 99.08 190.063 99.08ZM193.393 101H189.823C188.443 101 187.353 100.61 186.553 99.83C185.773 99.05 185.383 97.96 185.383 96.56V86.15C185.383 84.75 185.773 83.66 186.553 82.88C187.353 82.1 188.443 81.71 189.823 81.71H193.393C194.773 81.71 195.853 82.11 196.633 82.91C197.433 83.69 197.833 84.77 197.833 86.15V96.56C197.833 97.94 197.433 99.03 196.633 99.83C195.853 100.61 194.773 101 193.393 101ZM202.535 101H201.185C200.905 101 200.765 100.86 200.765 100.58V82.13C200.765 81.85 200.905 81.71 201.185 81.71H208.085C209.465 81.71 210.555 82.11 211.355 82.91C212.155 83.69 212.555 84.77 212.555 86.15V88.88C212.555 90 212.285 90.93 211.745 91.67C211.205 92.39 210.455 92.87 209.495 93.11V93.23L212.975 100.52C213.155 100.84 213.055 101 212.675 101H211.325C210.985 101 210.735 100.86 210.575 100.58L207.215 93.32H203.255C203.055 93.32 202.955 93.41 202.955 93.59V100.58C202.955 100.86 202.815 101 202.535 101ZM203.255 91.49H207.785C209.505 91.49 210.365 90.63 210.365 88.91V86.24C210.365 84.5 209.505 83.63 207.785 83.63H203.255C203.055 83.63 202.955 83.72 202.955 83.9V91.22C202.955 91.4 203.055 91.49 203.255 91.49ZM228.938 81.71H231.368C231.648 81.71 231.788 81.85 231.788 82.13V100.58C231.788 100.86 231.648 101 231.368 101H230.048C229.768 101 229.628 100.86 229.628 100.58V84.65H229.508L224.858 96.41C224.738 96.67 224.558 96.8 224.318 96.8H222.878C222.618 96.8 222.448 96.67 222.368 96.41L217.628 84.62H217.508V100.58C217.508 100.86 217.378 101 217.118 101H215.798C215.518 101 215.378 100.86 215.378 100.58V82.13C215.378 81.85 215.518 81.71 215.798 81.71H218.228C218.408 81.71 218.528 81.79 218.588 81.95L223.508 94.37H223.658L228.578 81.95C228.618 81.79 228.738 81.71 228.938 81.71ZM235.27 101H233.77C233.51 101 233.42 100.86 233.5 100.58L239.11 82.13C239.19 81.85 239.38 81.71 239.68 81.71H241.84C242.14 81.71 242.33 81.85 242.41 82.13L248.02 100.58C248.1 100.86 248.01 101 247.75 101H246.22C246 101 245.86 100.86 245.8 100.58L244.39 96.2H237.13L235.72 100.58C235.64 100.86 235.49 101 235.27 101ZM240.7 83.96L237.61 94.34H243.91L240.82 83.96H240.7ZM258.339 99.08H263.379C265.059 99.08 265.899 98.21 265.899 96.47V86.24C265.899 84.5 265.059 83.63 263.379 83.63H258.339C258.139 83.63 258.039 83.72 258.039 83.9V98.81C258.039 98.99 258.139 99.08 258.339 99.08ZM255.849 100.58V82.13C255.849 81.85 255.989 81.71 256.269 81.71H263.649C265.029 81.71 266.109 82.11 266.889 82.91C267.689 83.69 268.089 84.77 268.089 86.15V96.56C268.089 97.94 267.689 99.03 266.889 99.83C266.109 100.61 265.029 101 263.649 101H256.269C255.989 101 255.849 100.86 255.849 100.58ZM280.858 101H271.438C271.158 101 271.018 100.86 271.018 100.58V82.13C271.018 81.85 271.158 81.71 271.438 81.71H280.858C281.138 81.71 281.278 81.85 281.278 82.13V83.21C281.278 83.49 281.138 83.63 280.858 83.63H273.508C273.308 83.63 273.208 83.72 273.208 83.9V89.96C273.208 90.14 273.308 90.23 273.508 90.23H279.928C280.208 90.23 280.348 90.37 280.348 90.65V91.73C280.348 92.01 280.208 92.15 279.928 92.15H273.508C273.308 92.15 273.208 92.24 273.208 92.42V98.81C273.208 98.99 273.308 99.08 273.508 99.08H280.858C281.138 99.08 281.278 99.22 281.278 99.5V100.58C281.278 100.86 281.138 101 280.858 101ZM299.89 101H290.47C290.19 101 290.05 100.86 290.05 100.58V82.13C290.05 81.85 290.19 81.71 290.47 81.71H299.89C300.17 81.71 300.31 81.85 300.31 82.13V83.21C300.31 83.49 300.17 83.63 299.89 83.63H292.54C292.34 83.63 292.24 83.72 292.24 83.9V89.96C292.24 90.14 292.34 90.23 292.54 90.23H298.96C299.24 90.23 299.38 90.37 299.38 90.65V91.73C299.38 92.01 299.24 92.15 298.96 92.15H292.54C292.34 92.15 292.24 92.24 292.24 92.42V98.81C292.24 98.99 292.34 99.08 292.54 99.08H299.89C300.17 99.08 300.31 99.22 300.31 99.5V100.58C300.31 100.86 300.17 101 299.89 101ZM302.754 96.56V95.6C302.754 95.32 302.894 95.18 303.174 95.18H304.524C304.804 95.18 304.944 95.32 304.944 95.6V96.38C304.944 98.18 305.834 99.08 307.614 99.08H310.254C312.034 99.08 312.924 98.16 312.924 96.32V95.3C312.924 93.86 311.734 92.92 309.354 92.48C308.354 92.3 307.354 92.09 306.354 91.85C305.354 91.61 304.504 91.15 303.804 90.47C303.104 89.77 302.754 88.82 302.754 87.62V86.15C302.754 84.77 303.144 83.69 303.924 82.91C304.724 82.11 305.814 81.71 307.194 81.71H310.524C311.884 81.71 312.964 82.11 313.764 82.91C314.564 83.69 314.964 84.77 314.964 86.15V86.9C314.964 87.2 314.834 87.35 314.574 87.35H313.194C312.934 87.35 312.804 87.2 312.804 86.9V86.36C312.804 84.54 311.914 83.63 310.134 83.63H307.584C305.804 83.63 304.914 84.58 304.914 86.48V87.68C304.914 88.7 305.584 89.4 306.924 89.78C307.524 89.94 308.184 90.09 308.904 90.23C309.624 90.35 310.344 90.52 311.064 90.74C311.804 90.94 312.474 91.2 313.074 91.52C313.674 91.82 314.154 92.29 314.514 92.93C314.894 93.55 315.084 94.31 315.084 95.21V96.56C315.084 97.94 314.684 99.03 313.884 99.83C313.084 100.61 312.004 101 310.644 101H307.194C305.834 101 304.754 100.61 303.954 99.83C303.154 99.03 302.754 97.94 302.754 96.56ZM322.814 101H321.464C321.184 101 321.044 100.86 321.044 100.58V83.9C321.044 83.72 320.944 83.63 320.744 83.63H316.664C316.364 83.63 316.214 83.49 316.214 83.21V82.13C316.214 81.85 316.364 81.71 316.664 81.71H327.614C327.914 81.71 328.064 81.85 328.064 82.13V83.21C328.064 83.49 327.914 83.63 327.614 83.63H323.534C323.334 83.63 323.234 83.72 323.234 83.9V100.58C323.234 100.86 323.094 101 322.814 101ZM339.667 81.71H341.017C341.297 81.71 341.437 81.84 341.437 82.1V96.56C341.437 97.96 341.047 99.05 340.267 99.83C339.487 100.61 338.407 101 337.027 101H333.697C332.317 101 331.227 100.61 330.427 99.83C329.647 99.05 329.257 97.96 329.257 96.56V82.13C329.257 81.85 329.397 81.71 329.677 81.71H331.027C331.307 81.71 331.447 81.85 331.447 82.13V96.47C331.447 98.21 332.277 99.08 333.937 99.08H336.757C338.437 99.08 339.277 98.21 339.277 96.47V82.13C339.277 81.85 339.407 81.71 339.667 81.71ZM347.008 99.08H352.048C353.728 99.08 354.568 98.21 354.568 96.47V86.24C354.568 84.5 353.728 83.63 352.048 83.63H347.008C346.808 83.63 346.708 83.72 346.708 83.9V98.81C346.708 98.99 346.808 99.08 347.008 99.08ZM344.518 100.58V82.13C344.518 81.85 344.658 81.71 344.938 81.71H352.318C353.698 81.71 354.778 82.11 355.558 82.91C356.358 83.69 356.758 84.77 356.758 86.15V96.56C356.758 97.94 356.358 99.03 355.558 99.83C354.778 100.61 353.698 101 352.318 101H344.938C344.658 101 344.518 100.86 344.518 100.58ZM364.068 99.08H367.128C368.808 99.08 369.648 98.21 369.648 96.47V86.24C369.648 84.5 368.808 83.63 367.128 83.63H364.068C362.408 83.63 361.578 84.5 361.578 86.24V96.47C361.578 98.21 362.408 99.08 364.068 99.08ZM367.398 101H363.828C362.448 101 361.358 100.61 360.558 99.83C359.778 99.05 359.388 97.96 359.388 96.56V86.15C359.388 84.75 359.778 83.66 360.558 82.88C361.358 82.1 362.448 81.71 363.828 81.71H367.398C368.778 81.71 369.858 82.11 370.638 82.91C371.438 83.69 371.838 84.77 371.838 86.15V96.56C371.838 97.94 371.438 99.03 370.638 99.83C369.858 100.61 368.778 101 367.398 101ZM374.56 96.56V95.6C374.56 95.32 374.7 95.18 374.98 95.18H376.33C376.61 95.18 376.75 95.32 376.75 95.6V96.38C376.75 98.18 377.64 99.08 379.42 99.08H382.06C383.84 99.08 384.73 98.16 384.73 96.32V95.3C384.73 93.86 383.54 92.92 381.16 92.48C380.16 92.3 379.16 92.09 378.16 91.85C377.16 91.61 376.31 91.15 375.61 90.47C374.91 89.77 374.56 88.82 374.56 87.62V86.15C374.56 84.77 374.95 83.69 375.73 82.91C376.53 82.11 377.62 81.71 379 81.71H382.33C383.69 81.71 384.77 82.11 385.57 82.91C386.37 83.69 386.77 84.77 386.77 86.15V86.9C386.77 87.2 386.64 87.35 386.38 87.35H385C384.74 87.35 384.61 87.2 384.61 86.9V86.36C384.61 84.54 383.72 83.63 381.94 83.63H379.39C377.61 83.63 376.72 84.58 376.72 86.48V87.68C376.72 88.7 377.39 89.4 378.73 89.78C379.33 89.94 379.99 90.09 380.71 90.23C381.43 90.35 382.15 90.52 382.87 90.74C383.61 90.94 384.28 91.2 384.88 91.52C385.48 91.82 385.96 92.29 386.32 92.93C386.7 93.55 386.89 94.31 386.89 95.21V96.56C386.89 97.94 386.49 99.03 385.69 99.83C384.89 100.61 383.81 101 382.45 101H379C377.64 101 376.56 100.61 375.76 99.83C374.96 99.03 374.56 97.94 374.56 96.56ZM389.881 85.61V82.13C389.881 81.85 390.021 81.71 390.301 81.71H391.891C392.171 81.71 392.311 81.85 392.311 82.13V85.61C392.311 87.51 392.251 89.36 392.131 91.16C392.011 92.96 391.931 93.98 391.891 94.22C391.851 94.46 391.721 94.58 391.501 94.58H390.691C390.431 94.58 390.291 94.43 390.271 94.13C390.191 93.35 390.101 91.98 390.001 90.02C389.921 88.06 389.881 86.59 389.881 85.61ZM392.251 96.95V100.58C392.251 100.86 392.111 101 391.831 101H390.391C390.131 101 390.001 100.85 390.001 100.55V96.95C390.001 96.69 390.131 96.56 390.391 96.56H391.831C392.111 96.56 392.251 96.69 392.251 96.95Z" fill="#253D81"/>
</svg>
