<svg width="493" height="76" viewBox="0 0 493 76" fill="none" xmlns="http://www.w3.org/2000/svg">
<path d="M492.379 48.75C492.379 52.325 491.274 55.6075 489.064 58.5975C486.919 61.5225 483.994 63.8625 480.289 65.6175C476.584 67.3725 472.489 68.25 468.004 68.25H413.502V58.5H468.004C470.669 58.5 473.107 58.0775 475.317 57.2325C477.527 56.3225 479.282 55.12 480.582 53.625C481.947 52.13 482.629 50.505 482.629 48.75V43.875H437.877C433.392 43.875 429.297 42.77 425.592 40.56C421.952 38.35 419.027 35.425 416.817 31.785C414.607 28.08 413.502 23.985 413.502 19.5V0H423.252V19.5C423.252 22.165 423.902 24.635 425.202 26.91C426.502 29.12 428.257 30.875 430.467 32.175C432.742 33.475 435.212 34.125 437.877 34.125H482.629V0H492.379V48.75Z" fill="white"/>
<path d="M403.5 68H346V0H355.118V58.2857H403.5V68Z" fill="white"/>
<path d="M339.3 34.125C339.3 38.87 338.539 43.3225 337.017 47.4825C335.495 51.5775 333.311 55.185 330.465 58.305C327.685 61.425 324.31 63.8625 320.339 65.6175C316.434 67.3725 312.099 68.25 307.334 68.25H271V63.5V58.5H307.334C311.901 58.5 315.839 57.395 319.148 55.185C322.457 52.975 324.972 50.05 326.692 46.41C328.479 42.705 329.373 38.61 329.373 34.125C329.373 29.64 328.479 25.545 326.692 21.84C324.972 18.135 322.457 15.21 319.148 13.065C315.839 10.855 311.901 9.75 307.334 9.75H267.327V60.45L262.835 66.3L257.4 60.45V0H307.334C312.099 0 316.434 0.8775 320.339 2.6325C324.31 4.3875 327.685 6.8575 330.465 10.0425C333.311 13.1625 335.495 16.8025 337.017 20.9625C338.539 25.0575 339.3 29.445 339.3 34.125Z" fill="white"/>
<path d="M247.26 68.25H237.51V54.6H178.23V45.825H237.51V9.75H202.508C198.088 9.75 194.025 10.855 190.32 13.065C186.615 15.21 183.658 18.135 181.448 21.84C179.303 25.545 178.23 29.64 178.23 34.125V68.25H168.48V34.125C168.48 29.445 169.358 25.0575 171.113 20.9625C172.868 16.8025 175.305 13.1625 178.425 10.0425C181.545 6.8575 185.153 4.3875 189.248 2.6325C193.408 0.8775 197.828 0 202.508 0H247.26V68.25Z" fill="white"/>
<path d="M162.714 68.25H118.742C113.997 68.25 109.707 67.3725 105.872 65.6175C102.037 63.8625 98.722 61.425 95.927 58.305C93.197 55.185 91.0845 51.5775 89.5895 47.4825C88.0945 43.3225 87.347 38.87 87.347 34.125C87.347 29.445 88.0945 25.0575 89.5895 20.9625C91.0845 16.8025 93.197 13.1625 95.927 10.0425C98.722 6.8575 102.037 4.3875 105.872 2.6325C109.707 0.8775 113.997 0 118.742 0H162.714V9.75H118.742C114.257 9.75 110.389 10.855 107.139 13.065C103.954 15.21 101.484 18.135 99.7295 21.84C97.9745 25.545 97.097 29.64 97.097 34.125C97.097 38.61 97.9745 42.705 99.7295 46.41C101.484 50.05 103.954 52.975 107.139 55.185C110.389 57.395 114.257 58.5 118.742 58.5H162.714V68.25Z" fill="white"/>
<path d="M78.78 68.25H69.03V48.75H14.5275V39H69.03V9.75H34.0275C29.6075 9.75 25.545 10.855 21.84 13.065C18.135 15.21 15.1775 18.135 12.9675 21.84C10.8225 25.545 9.75 29.64 9.75 34.125V68.25H0V34.125C0 29.445 0.8775 25.0575 2.6325 20.9625C4.3875 16.8025 6.825 13.1625 9.945 10.0425C13.065 6.8575 16.6725 4.3875 20.7675 2.6325C24.9275 0.8775 29.3475 0 34.0275 0H78.78V68.25Z" fill="white"/>
<path d="M222 68H232V76L227 74L222 76V68Z" fill="white"/>
<line x1="189.15" y1="27.4" x2="214.5" y2="27.4" stroke="white" stroke-width="3.9"/>
<line x1="189.15" y1="33.25" x2="230.1" y2="33.25" stroke="white" stroke-width="3.9"/>
<line x1="216.45" y1="27.4" x2="230.1" y2="27.4" stroke="white" stroke-width="3.9"/>
<path d="M177.45 59.475H237.9V68.25H177.45V59.475Z" fill="white"/>
</svg>
